<svg xmlns="http://www.w3.org/2000/svg" width="1155" height="1155" xmlns:v="https://vecta.io/nano"><path fill="#fff" d="M0 0h1155v1155H0z"/><path d="M350 70h35v35h-35z"/><path d="M385 70h35v35h-35zm70 0h35v35h-35z"/><path d="M490 70h35v35h-35z"/><path d="M525 70h35v35h-35z"/><path d="M560 70h35v35h-35z"/><path d="M595 70h35v35h-35zm70 0h35v35h-35zm-315 35h35v35h-35zm70 0h35v35h-35z"/><path d="M455 105h35v35h-35z"/><path d="M490 105h35v35h-35z"/><path d="M525 105h35v35h-35z"/><path d="M560 105h35v35h-35z"/><path d="M595 105h35v35h-35zm70 0h35v35h-35zm70 0h35v35h-35z"/><path d="M770 105h35v35h-35zm-420 35h35v35h-35z"/><path d="M385 140h35v35h-35zm70 0h35v35h-35z"/><path d="M490 140h35v35h-35z"/><path d="M525 140h35v35h-35z"/><path d="M560 140h35v35h-35zm140 0h35v35h-35z"/><path d="M735 140h35v35h-35z"/><path d="M770 140h35v35h-35zm-385 35h35v35h-35z"/><path d="M420 175h35v35h-35z"/><path d="M455 175h35v35h-35z"/><path d="M490 175h35v35h-35zm70 0h35v35h-35z"/><path d="M595 175h35v35h-35zm70 0h35v35h-35zm-315 35h35v35h-35z"/><path d="M385 210h35v35h-35z"/><path d="M420 210h35v35h-35zm105 0h35v35h-35zm70 0h35v35h-35zm105 0h35v35h-35z"/><path d="M420 245h35v35h-35z"/><path d="M455 245h35v35h-35z"/><path d="M490 245h35v35h-35z"/><path d="M525 245h35v35h-35z"/><path d="M560 245h35v35h-35zm140 0h35v35h-35zm70 0h35v35h-35zm-420 35h35v35h-35z"/><path d="M420 280h35v35h-35zm70 0h35v35h-35zm70 0h35v35h-35zm70 0h35v35h-35z"/><path d="M700 280h35v35h-35zm70 0h35v35h-35zm-350 35h35v35h-35zm140 0h35v35h-35z"/><path d="M700 315h35v35h-35z"/><path d="M735 315h35v35h-35z"/><path d="M770 315h35v35h-35zM70 350h35v35H70zm105 0h35v35h-35z"/><path d="M210 350h35v35h-35z"/><path d="M245 350h35v35h-35z"/><path d="M280 350h35v35h-35z"/><path d="M315 350h35v35h-35z"/><path d="M350 350h35v35h-35z"/><path d="M385 350h35v35h-35z"/><path d="M420 350h35v35h-35z"/><path d="M455 350h35v35h-35zm70 0h35v35h-35z"/><path d="M560 350h35v35h-35z"/><path d="M595 350h35v35h-35z"/><path d="M630 350h35v35h-35z"/><path d="M665 350h35v35h-35zm70 0h35v35h-35z"/><path d="M770 350h35v35h-35z"/><path d="M805 350h35v35h-35zm105 0h35v35h-35zm70 0h35v35h-35z"/><path d="M1015 350h35v35h-35z"/><path d="M1050 350h35v35h-35zm-875 35h35v35h-35zm70 0h35v35h-35zm70 0h35v35h-35z"/><path d="M350 385h35v35h-35z"/><path d="M385 385h35v35h-35z"/><path d="M420 385h35v35h-35z"/><path d="M455 385h35v35h-35z"/><path d="M490 385h35v35h-35zm70 0h35v35h-35zm105 0h35v35h-35zm70 0h35v35h-35zm140 0h35v35h-35z"/><path d="M910 385h35v35h-35zm70 0h35v35h-35z"/><path d="M1015 385h35v35h-35zm-910 35h35v35h-35zm70 0h35v35h-35z"/><path d="M210 420h35v35h-35zm70 0h35v35h-35zm140 0h35v35h-35zm140 0h35v35h-35zm105 0h35v35h-35z"/><path d="M700 420h35v35h-35zm70 0h35v35h-35zm70 0h35v35h-35zm140 0h35v35h-35zM70 455h35v35H70zm70 0h35v35h-35zm105 0h35v35h-35zm70 0h35v35h-35z"/><path d="M350 455h35v35h-35zm70 0h35v35h-35z"/><path d="M455 455h35v35h-35zm105 0h35v35h-35z"/><path d="M595 455h35v35h-35zm70 0h35v35h-35zm70 0h35v35h-35z"/><path d="M770 455h35v35h-35z"/><path d="M805 455h35v35h-35zm70 0h35v35h-35z"/><path d="M910 455h35v35h-35z"/><path d="M945 455h35v35h-35zm105 0h35v35h-35zM70 490h35v35H70z"/><path d="M105 490h35v35h-35z"/><path d="M140 490h35v35h-35z"/><path d="M175 490h35v35h-35zm105 0h35v35h-35z"/><path d="M315 490h35v35h-35zm105 0h35v35h-35z"/><path d="M455 490h35v35h-35z"/><path d="M490 490h35v35h-35z"/><path d="M525 490h35v35h-35z"/><path d="M560 490h35v35h-35zm175 0h35v35h-35z"/><path d="M770 490h35v35h-35zm70 0h35v35h-35z"/><path d="M875 490h35v35h-35zm175 0h35v35h-35zM70 525h35v35H70zm70 0h35v35h-35zm70 0h35v35h-35zm105 0h35v35h-35z"/><path d="M350 525h35v35h-35z"/><path d="M385 525h35v35h-35z"/><path d="M420 525h35v35h-35z"/><path d="M455 525h35v35h-35zm210 0h35v35h-35z"/><path d="M700 525h35v35h-35zm105 0h35v35h-35z"/><path d="M840 525h35v35h-35z"/><path d="M875 525h35v35h-35z"/><path d="M910 525h35v35h-35z"/><path d="M945 525h35v35h-35z"/><path d="M980 525h35v35h-35z"/><path d="M1015 525h35v35h-35z"/><path d="M1050 525h35v35h-35zM70 560h35v35H70z"/><path d="M105 560h35v35h-35zm175 0h35v35h-35zm70 0h35v35h-35z"/><path d="M385 560h35v35h-35zm70 0h35v35h-35zm105 0h35v35h-35z"/><path d="M595 560h35v35h-35zm105 0h35v35h-35z"/><path d="M735 560h35v35h-35z"/><path d="M770 560h35v35h-35z"/><path d="M805 560h35v35h-35z"/><path d="M840 560h35v35h-35z"/><path d="M875 560h35v35h-35zm105 0h35v35h-35zm70 0h35v35h-35zm-945 35h35v35h-35zm140 0h35v35h-35zm105 0h35v35h-35z"/><path d="M385 595h35v35h-35z"/><path d="M420 595h35v35h-35z"/><path d="M455 595h35v35h-35z"/><path d="M490 595h35v35h-35z"/><path d="M525 595h35v35h-35z"/><path d="M560 595h35v35h-35zm70 0h35v35h-35zm70 0h35v35h-35z"/><path d="M735 595h35v35h-35zm175 0h35v35h-35zm70 0h35v35h-35zm70 0h35v35h-35zm-910 35h35v35h-35zm70 0h35v35h-35z"/><path d="M245 630h35v35h-35z"/><path d="M280 630h35v35h-35z"/><path d="M315 630h35v35h-35z"/><path d="M350 630h35v35h-35zm140 0h35v35h-35zm105 0h35v35h-35zm140 0h35v35h-35z"/><path d="M770 630h35v35h-35zm175 0h35v35h-35zM70 665h35v35H70z"/><path d="M105 665h35v35h-35z"/><path d="M140 665h35v35h-35zm105 0h35v35h-35zm70 0h35v35h-35zm140 0h35v35h-35zm210 0h35v35h-35zm70 0h35v35h-35zm175 0h35v35h-35zm70 0h35v35h-35z"/><path d="M1015 665h35v35h-35zM70 700h35v35H70z"/><path d="M105 700h35v35h-35z"/><path d="M140 700h35v35h-35zm70 0h35v35h-35z"/><path d="M245 700h35v35h-35z"/><path d="M280 700h35v35h-35z"/><path d="M315 700h35v35h-35zm70 0h35v35h-35z"/><path d="M420 700h35v35h-35zm105 0h35v35h-35z"/><path d="M560 700h35v35h-35zm70 0h35v35h-35zm105 0h35v35h-35zm105 0h35v35h-35zm70 0h35v35h-35z"/><path d="M945 700h35v35h-35zm105 0h35v35h-35zM70 735h35v35H70z"/><path d="M105 735h35v35h-35zm105 0h35v35h-35z"/><path d="M245 735h35v35h-35zm105 0h35v35h-35z"/><path d="M385 735h35v35h-35zm105 0h35v35h-35z"/><path d="M525 735h35v35h-35zm70 0h35v35h-35z"/><path d="M630 735h35v35h-35zm70 0h35v35h-35zm245 0h35v35h-35z"/><path d="M980 735h35v35h-35zM70 770h35v35H70z"/><path d="M105 770h35v35h-35zm105 0h35v35h-35zm70 0h35v35h-35zm210 0h35v35h-35z"/><path d="M525 770h35v35h-35zm210 0h35v35h-35z"/><path d="M770 770h35v35h-35z"/><path d="M805 770h35v35h-35z"/><path d="M840 770h35v35h-35z"/><path d="M875 770h35v35h-35z"/><path d="M910 770h35v35h-35z"/><path d="M945 770h35v35h-35z"/><path d="M980 770h35v35h-35z"/><path d="M1015 770h35v35h-35zm-665 35h35v35h-35z"/><path d="M385 805h35v35h-35zm70 0h35v35h-35zm70 0h35v35h-35zm105 0h35v35h-35zm140 0h35v35h-35zm140 0h35v35h-35z"/><path d="M945 805h35v35h-35zm-595 35h35v35h-35z"/><path d="M385 840h35v35h-35zm105 0h35v35h-35z"/><path d="M525 840h35v35h-35zm70 0h35v35h-35z"/><path d="M630 840h35v35h-35zm70 0h35v35h-35z"/><path d="M735 840h35v35h-35z"/><path d="M770 840h35v35h-35zm70 0h35v35h-35zm70 0h35v35h-35z"/><path d="M945 840h35v35h-35zm-595 35h35v35h-35z"/><path d="M385 875h35v35h-35z"/><path d="M420 875h35v35h-35z"/><path d="M455 875h35v35h-35z"/><path d="M490 875h35v35h-35z"/><path d="M525 875h35v35h-35zm105 0h35v35h-35z"/><path d="M665 875h35v35h-35z"/><path d="M700 875h35v35h-35z"/><path d="M735 875h35v35h-35z"/><path d="M770 875h35v35h-35zm140 0h35v35h-35zm105 0h35v35h-35z"/><path d="M1050 875h35v35h-35zm-700 35h35v35h-35z"/><path d="M385 910h35v35h-35z"/><path d="M420 910h35v35h-35z"/><path d="M455 910h35v35h-35zm70 0h35v35h-35zm70 0h35v35h-35z"/><path d="M630 910h35v35h-35zm105 0h35v35h-35z"/><path d="M770 910h35v35h-35z"/><path d="M805 910h35v35h-35z"/><path d="M840 910h35v35h-35z"/><path d="M875 910h35v35h-35z"/><path d="M910 910h35v35h-35z"/><path d="M945 910h35v35h-35zm-595 35h35v35h-35zm70 0h35v35h-35zm70 0h35v35h-35z"/><path d="M525 945h35v35h-35z"/><path d="M560 945h35v35h-35zm70 0h35v35h-35z"/><path d="M665 945h35v35h-35zm350 0h35v35h-35zm-630 35h35v35h-35zm175 0h35v35h-35z"/><path d="M630 980h35v35h-35z"/><path d="M665 980h35v35h-35z"/><path d="M700 980h35v35h-35zm105 0h35v35h-35zm70 0h35v35h-35z"/><path d="M910 980h35v35h-35zm70 0h35v35h-35z"/><path d="M1015 980h35v35h-35z"/><path d="M1050 980h35v35h-35zm-595 35h35v35h-35z"/><path d="M490 1015h35v35h-35z"/><path d="M525 1015h35v35h-35z"/><path d="M560 1015h35v35h-35z"/><path d="M595 1015h35v35h-35zm105 0h35v35h-35zm105 0h35v35h-35zm105 0h35v35h-35z"/><path d="M945 1015h35v35h-35z"/><path d="M980 1015h35v35h-35zm70 0h35v35h-35zm-700 35h35v35h-35z"/><path d="M385 1050h35v35h-35z"/><path d="M420 1050h35v35h-35z"/><path d="M455 1050h35v35h-35zm210 0h35v35h-35z"/><path d="M700 1050h35v35h-35z"/><path d="M735 1050h35v35h-35z"/><path d="M770 1050h35v35h-35z"/><path d="M805 1050h35v35h-35z"/><path d="M840 1050h35v35h-35zm70 0h35v35h-35zM278.25 70h-171.5H70v36.75 171.5V315h36.75 171.5H315v-36.75-171.5V70h-36.75zm0 208.25h-171.5v-171.5h171.5v171.5zm770-208.25h-171.5H840v36.75 171.5V315h36.75 171.5H1085v-36.75-171.5V70h-36.75zm0 208.25h-171.5v-171.5h171.5v171.5zM278.25 840h-171.5H70v36.75 171.5V1085h36.75 171.5H315v-36.75-171.5V840h-36.75zm0 208.25h-171.5v-171.5h171.5v171.5zM140 140h105v105H140zm770 0h105v105H910zM140 910h105v105H140z"/></svg>