<svg xmlns="http://www.w3.org/2000/svg" width="1155" height="1155" xmlns:v="https://vecta.io/nano"><path fill="#fff" d="M0 0h1155v1155H0z"/><path d="M350 70h35v35h-35zm70 0h35v35h-35zm105 0h35v35h-35zm70 0h35v35h-35zm140 0h35v35h-35z"/><path d="M770 70h35v35h-35zm-420 35h35v35h-35zm70 0h35v35h-35z"/><path d="M455 105h35v35h-35z"/><path d="M490 105h35v35h-35z"/><path d="M525 105h35v35h-35zm105 0h35v35h-35z"/><path d="M665 105h35v35h-35z"/><path d="M700 105h35v35h-35zm-210 35h35v35h-35zm-140 35h35v35h-35z"/><path d="M385 175h35v35h-35z"/><path d="M420 175h35v35h-35z"/><path d="M455 175h35v35h-35z"/><path d="M490 175h35v35h-35zm70 0h35v35h-35zm105 0h35v35h-35zm105 0h35v35h-35z"/><path d="M420 210h35v35h-35zm70 0h35v35h-35zm70 0h35v35h-35z"/><path d="M595 210h35v35h-35z"/><path d="M630 210h35v35h-35zm105 0h35v35h-35zm-350 35h35v35h-35zm140 0h35v35h-35z"/><path d="M665 245h35v35h-35z"/><path d="M700 245h35v35h-35z"/><path d="M735 245h35v35h-35z"/><path d="M770 245h35v35h-35zm-420 35h35v35h-35zm70 0h35v35h-35zm70 0h35v35h-35z"/><path d="M560 280h35v35h-35zm70 0h35v35h-35zm70 0h35v35h-35zm70 0h35v35h-35zm-420 35h35v35h-35zm70 0h35v35h-35z"/><path d="M455 315h35v35h-35zm140 0h35v35h-35z"/><path d="M630 315h35v35h-35z"/><path d="M665 315h35v35h-35z"/><path d="M700 315h35v35h-35z"/><path d="M735 315h35v35h-35zM70 350h35v35H70zm70 0h35v35h-35z"/><path d="M175 350h35v35h-35zm70 0h35v35h-35z"/><path d="M280 350h35v35h-35z"/><path d="M315 350h35v35h-35zm70 0h35v35h-35zm70 0h35v35h-35z"/><path d="M490 350h35v35h-35z"/><path d="M525 350h35v35h-35zm70 0h35v35h-35z"/><path d="M630 350h35v35h-35z"/><path d="M665 350h35v35h-35z"/><path d="M700 350h35v35h-35zm140 0h35v35h-35zm105 0h35v35h-35zm70 0h35v35h-35z"/><path d="M1050 350h35v35h-35zm-840 35h35v35h-35zm105 0h35v35h-35z"/><path d="M350 385h35v35h-35zm105 0h35v35h-35zm70 0h35v35h-35z"/><path d="M560 385h35v35h-35zm70 0h35v35h-35zm70 0h35v35h-35z"/><path d="M735 385h35v35h-35z"/><path d="M770 385h35v35h-35z"/><path d="M805 385h35v35h-35z"/><path d="M840 385h35v35h-35z"/><path d="M875 385h35v35h-35z"/><path d="M910 385h35v35h-35z"/><path d="M945 385h35v35h-35z"/><path d="M980 385h35v35h-35z"/><path d="M1015 385h35v35h-35z"/><path d="M1050 385h35v35h-35zm-910 35h35v35h-35z"/><path d="M175 420h35v35h-35z"/><path d="M210 420h35v35h-35z"/><path d="M245 420h35v35h-35z"/><path d="M280 420h35v35h-35z"/><path d="M315 420h35v35h-35zm70 0h35v35h-35zm105 0h35v35h-35z"/><path d="M525 420h35v35h-35zm105 0h35v35h-35zm140 0h35v35h-35z"/><path d="M805 420h35v35h-35z"/><path d="M840 420h35v35h-35z"/><path d="M875 420h35v35h-35z"/><path d="M910 420h35v35h-35zm70 0h35v35h-35z"/><path d="M1015 420h35v35h-35zM70 455h35v35H70z"/><path d="M105 455h35v35h-35zm105 0h35v35h-35z"/><path d="M245 455h35v35h-35zm70 0h35v35h-35zm105 0h35v35h-35z"/><path d="M455 455h35v35h-35zm140 0h35v35h-35z"/><path d="M630 455h35v35h-35zm70 0h35v35h-35zm105 0h35v35h-35z"/><path d="M840 455h35v35h-35z"/><path d="M875 455h35v35h-35z"/><path d="M910 455h35v35h-35zm105 0h35v35h-35z"/><path d="M1050 455h35v35h-35zm-910 35h35v35h-35z"/><path d="M175 490h35v35h-35zm70 0h35v35h-35z"/><path d="M280 490h35v35h-35zm70 0h35v35h-35z"/><path d="M385 490h35v35h-35z"/><path d="M420 490h35v35h-35zm70 0h35v35h-35zm70 0h35v35h-35z"/><path d="M595 490h35v35h-35zm70 0h35v35h-35zm105 0h35v35h-35zm175 0h35v35h-35z"/><path d="M980 490h35v35h-35z"/><path d="M1015 490h35v35h-35z"/><path d="M1050 490h35v35h-35zM70 525h35v35H70zm70 0h35v35h-35zm70 0h35v35h-35z"/><path d="M245 525h35v35h-35zm70 0h35v35h-35z"/><path d="M350 525h35v35h-35z"/><path d="M385 525h35v35h-35zm105 0h35v35h-35zm70 0h35v35h-35z"/><path d="M595 525h35v35h-35z"/><path d="M630 525h35v35h-35zm105 0h35v35h-35zm105 0h35v35h-35z"/><path d="M875 525h35v35h-35zm70 0h35v35h-35z"/><path d="M980 525h35v35h-35zm70 0h35v35h-35zm-910 35h35v35h-35z"/><path d="M175 560h35v35h-35zm105 0h35v35h-35z"/><path d="M315 560h35v35h-35z"/><path d="M350 560h35v35h-35zm175 0h35v35h-35zm105 0h35v35h-35z"/><path d="M665 560h35v35h-35zm70 0h35v35h-35zm70 0h35v35h-35z"/><path d="M840 560h35v35h-35zm105 0h35v35h-35zm70 0h35v35h-35z"/><path d="M1050 560h35v35h-35zM70 595h35v35H70z"/><path d="M105 595h35v35h-35z"/><path d="M140 595h35v35h-35z"/><path d="M175 595h35v35h-35zm140 0h35v35h-35z"/><path d="M350 595h35v35h-35z"/><path d="M385 595h35v35h-35z"/><path d="M420 595h35v35h-35z"/><path d="M455 595h35v35h-35zm105 0h35v35h-35zm70 0h35v35h-35zm105 0h35v35h-35z"/><path d="M770 595h35v35h-35zm105 0h35v35h-35z"/><path d="M910 595h35v35h-35z"/><path d="M945 595h35v35h-35zM70 630h35v35H70z"/><path d="M105 630h35v35h-35z"/><path d="M140 630h35v35h-35z"/><path d="M175 630h35v35h-35z"/><path d="M210 630h35v35h-35z"/><path d="M245 630h35v35h-35z"/><path d="M280 630h35v35h-35z"/><path d="M315 630h35v35h-35z"/><path d="M350 630h35v35h-35zm140 0h35v35h-35zm70 0h35v35h-35z"/><path d="M595 630h35v35h-35zm70 0h35v35h-35z"/><path d="M700 630h35v35h-35z"/><path d="M735 630h35v35h-35z"/><path d="M770 630h35v35h-35z"/><path d="M805 630h35v35h-35zm105 0h35v35h-35zm-805 35h35v35h-35z"/><path d="M140 665h35v35h-35z"/><path d="M175 665h35v35h-35z"/><path d="M210 665h35v35h-35zm140 0h35v35h-35z"/><path d="M385 665h35v35h-35z"/><path d="M420 665h35v35h-35zm140 0h35v35h-35z"/><path d="M595 665h35v35h-35z"/><path d="M630 665h35v35h-35zm245 0h35v35h-35zm105 0h35v35h-35zM70 700h35v35H70zm140 0h35v35h-35zm70 0h35v35h-35zm70 0h35v35h-35z"/><path d="M385 700h35v35h-35z"/><path d="M420 700h35v35h-35zm105 0h35v35h-35z"/><path d="M560 700h35v35h-35z"/><path d="M595 700h35v35h-35zm105 0h35v35h-35zm175 0h35v35h-35zm70 0h35v35h-35z"/><path d="M980 700h35v35h-35zm-840 35h35v35h-35z"/><path d="M175 735h35v35h-35zm175 0h35v35h-35z"/><path d="M385 735h35v35h-35zm140 0h35v35h-35z"/><path d="M560 735h35v35h-35zm70 0h35v35h-35z"/><path d="M665 735h35v35h-35zm105 0h35v35h-35z"/><path d="M805 735h35v35h-35zm70 0h35v35h-35zm105 0h35v35h-35z"/><path d="M1015 735h35v35h-35zm-910 35h35v35h-35z"/><path d="M140 770h35v35h-35z"/><path d="M175 770h35v35h-35z"/><path d="M210 770h35v35h-35zm70 0h35v35h-35z"/><path d="M315 770h35v35h-35z"/><path d="M350 770h35v35h-35z"/><path d="M385 770h35v35h-35zm70 0h35v35h-35z"/><path d="M490 770h35v35h-35z"/><path d="M525 770h35v35h-35z"/><path d="M560 770h35v35h-35z"/><path d="M595 770h35v35h-35z"/><path d="M630 770h35v35h-35z"/><path d="M665 770h35v35h-35z"/><path d="M700 770h35v35h-35z"/><path d="M735 770h35v35h-35z"/><path d="M770 770h35v35h-35z"/><path d="M805 770h35v35h-35z"/><path d="M840 770h35v35h-35z"/><path d="M875 770h35v35h-35z"/><path d="M910 770h35v35h-35zm70 0h35v35h-35z"/><path d="M1015 770h35v35h-35zm-665 35h35v35h-35zm140 0h35v35h-35zm140 0h35v35h-35zm70 0h35v35h-35z"/><path d="M735 805h35v35h-35z"/><path d="M770 805h35v35h-35zm140 0h35v35h-35zm70 0h35v35h-35z"/><path d="M1015 805h35v35h-35z"/><path d="M1050 805h35v35h-35zm-700 35h35v35h-35zm70 0h35v35h-35zm140 0h35v35h-35zm70 0h35v35h-35zm70 0h35v35h-35z"/><path d="M735 840h35v35h-35z"/><path d="M770 840h35v35h-35zm70 0h35v35h-35zm70 0h35v35h-35zm105 0h35v35h-35zm-665 35h35v35h-35zm105 0h35v35h-35zm70 0h35v35h-35z"/><path d="M560 875h35v35h-35zm70 0h35v35h-35zm70 0h35v35h-35zm70 0h35v35h-35zm140 0h35v35h-35zm140 0h35v35h-35zm-630 35h35v35h-35z"/><path d="M455 910h35v35h-35zm210 0h35v35h-35zm105 0h35v35h-35z"/><path d="M805 910h35v35h-35z"/><path d="M840 910h35v35h-35z"/><path d="M875 910h35v35h-35z"/><path d="M910 910h35v35h-35z"/><path d="M945 910h35v35h-35z"/><path d="M980 910h35v35h-35zm-630 35h35v35h-35z"/><path d="M385 945h35v35h-35zm70 0h35v35h-35zm140 0h35v35h-35z"/><path d="M630 945h35v35h-35zm105 0h35v35h-35z"/><path d="M770 945h35v35h-35z"/><path d="M805 945h35v35h-35zm105 0h35v35h-35zm70 0h35v35h-35zm70 0h35v35h-35zm-700 35h35v35h-35z"/><path d="M385 980h35v35h-35z"/><path d="M420 980h35v35h-35z"/><path d="M455 980h35v35h-35z"/><path d="M490 980h35v35h-35z"/><path d="M525 980h35v35h-35zm175 0h35v35h-35zm105 0h35v35h-35zm70 0h35v35h-35zm70 0h35v35h-35z"/><path d="M980 980h35v35h-35zm70 0h35v35h-35zm-665 35h35v35h-35zm70 0h35v35h-35zm140 0h35v35h-35zm140 0h35v35h-35z"/><path d="M770 1015h35v35h-35zm105 0h35v35h-35z"/><path d="M910 1015h35v35h-35z"/><path d="M945 1015h35v35h-35zm70 0h35v35h-35zm-665 35h35v35h-35z"/><path d="M385 1050h35v35h-35zm70 0h35v35h-35z"/><path d="M490 1050h35v35h-35zm70 0h35v35h-35zm140 0h35v35h-35z"/><path d="M735 1050h35v35h-35z"/><path d="M770 1050h35v35h-35zm175 0h35v35h-35zm70 0h35v35h-35zM278.25 70h-171.5H70v36.75 171.5V315h36.75 171.5H315v-36.75-171.5V70h-36.75zm0 208.25h-171.5v-171.5h171.5v171.5zm770-208.25h-171.5H840v36.75 171.5V315h36.75 171.5H1085v-36.75-171.5V70h-36.75zm0 208.25h-171.5v-171.5h171.5v171.5zM278.25 840h-171.5H70v36.75 171.5V1085h36.75 171.5H315v-36.75-171.5V840h-36.75zm0 208.25h-171.5v-171.5h171.5v171.5zM140 140h105v105H140zm770 0h105v105H910zM140 910h105v105H140z"/></svg>