<?xml version="1.0" encoding="UTF-8" standalone="no"?>
<svg
   xmlns:dc="http://purl.org/dc/elements/1.1/"
   xmlns:cc="http://creativecommons.org/ns#"
   xmlns:rdf="http://www.w3.org/1999/02/22-rdf-syntax-ns#"
   xmlns:svg="http://www.w3.org/2000/svg"
   xmlns="http://www.w3.org/2000/svg"
   xmlns:sodipodi="http://sodipodi.sourceforge.net/DTD/sodipodi-0.dtd"
   xmlns:inkscape="http://www.inkscape.org/namespaces/inkscape"
   inkscape:version="1.0 (4035a4fb49, 2020-05-01)"
   inkscape:export-ydpi="288"
   inkscape:export-xdpi="288"
   inkscape:export-filename="C:\Users\usagi\tmp\rust-memory-container-cs\rust-memory-container-cs.png"
   sodipodi:docname="rust-memory-container-cs.svg"
   id="svg407"
   version="1.1"
   overflow="hidden"
   height="720"
   width="1280">
  <metadata
     id="metadata411">
    <rdf:RDF>
      <cc:Work
         rdf:about="">
        <dc:format>image/svg+xml</dc:format>
        <dc:type
           rdf:resource="http://purl.org/dc/dcmitype/StillImage" />
      </cc:Work>
    </rdf:RDF>
  </metadata>
  <sodipodi:namedview
     inkscape:current-layer="svg407"
     inkscape:window-maximized="1"
     inkscape:window-y="6"
     inkscape:window-x="3829"
     inkscape:cy="360"
     inkscape:cx="640"
     inkscape:zoom="1.128125"
     showgrid="false"
     id="namedview409"
     inkscape:window-height="2126"
     inkscape:window-width="3840"
     inkscape:pageshadow="2"
     inkscape:pageopacity="0"
     guidetolerance="10"
     gridtolerance="10"
     objecttolerance="10"
     borderopacity="1"
     bordercolor="#666666"
     pagecolor="#ffffff" />
  <defs
     id="defs5">
    <clipPath
       id="clip0">
      <path
         id="path2"
         clip-rule="evenodd"
         fill-rule="evenodd"
         d="M0 0 1280 0 1280 720 0 720Z" />
    </clipPath>
  </defs>
  <g
     id="g405"
     clip-path="url(#clip0)">
    <rect
       id="rect7"
       fill="#0D0D0D"
       height="720"
       width="1280"
       y="0"
       x="0" />
    <text
       id="text127"
       transform="translate(908.397 63)"
       font-size="24"
       font-weight="400"
       font-family="Calibri,Calibri_MSFontService,sans-serif"
       fill="#FFC000">&lt;mut&gt;<tspan
   id="tspan9"
   y="-7"
   x="67.5"
   font-size="16"
   fill="#818181">(†1)</tspan><tspan
   id="tspan11"
   y="-40"
   x="-0.674316"
   fill="#BFBFBF">&lt;immutable&gt;</tspan><tspan
   id="tspan13"
   y="609"
   x="-882.346"
   font-size="13"
   fill="#818181">rev</tspan><tspan
   id="tspan15"
   y="609"
   x="-865.013"
   font-size="13"
   fill="#818181">.2; 2020</tspan><tspan
   id="tspan17"
   y="609"
   x="-821.013"
   font-size="13"
   fill="#818181">-</tspan><tspan
   id="tspan19"
   y="609"
   x="-817.013"
   font-size="13"
   fill="#818181">09</tspan><tspan
   id="tspan21"
   y="609"
   x="-803.346"
   font-size="13"
   fill="#818181">-</tspan><tspan
   id="tspan23"
   y="609"
   x="-799.346"
   font-size="13"
   fill="#818181">24</tspan><tspan
   id="tspan25"
   y="625"
   x="-882.346"
   font-size="13"
   fill="#818181">https://github.com/usagi/rust</tspan><tspan
   id="tspan27"
   y="625"
   x="-719.346"
   font-size="13"
   fill="#818181">-</tspan><tspan
   id="tspan29"
   y="625"
   x="-715.346"
   font-size="13"
   fill="#818181">memory</tspan><tspan
   id="tspan31"
   y="625"
   x="-669.68"
   font-size="13"
   fill="#818181">-</tspan><tspan
   id="tspan33"
   y="625"
   x="-665.68"
   font-size="13"
   fill="#818181">container</tspan><tspan
   id="tspan35"
   y="625"
   x="-613.846"
   font-size="13"
   fill="#818181">-</tspan><tspan
   id="tspan37"
   y="625"
   x="-609.846"
   font-size="13"
   fill="#818181">cs</tspan><tspan
   id="tspan39"
   y="581"
   x="-272.721"
   fill="#BFBFBF">&lt;reader/writer&gt;</tspan><tspan
   id="tspan41"
   y="107"
   x="147.546"
   fill="#BFBFBF">T </tspan><tspan
   id="tspan43"
   y="107"
   x="164.712"
   fill="#818181">or</tspan><tspan
   id="tspan45"
   y="107"
   x="191.212">mut</tspan><tspan
   id="tspan47"
   y="100"
   x="231.046"
   font-size="16"
   fill="#818181">(†1)</tspan><tspan
   id="tspan49"
   y="143"
   x="147.546"
   fill="#00B0F0">Cell&lt;</tspan><tspan
   id="tspan51"
   y="143"
   x="195.379">T</tspan><tspan
   id="tspan53"
   y="143"
   x="207.046"
   fill="#00B0F0">&gt;</tspan><tspan
   id="tspan55"
   y="136"
   x="222.712"
   font-size="16"
   fill="#818181">(†3)</tspan><tspan
   id="tspan57"
   y="185"
   x="147.546"
   fill="#00B0F0">RefCell</tspan><tspan
   id="tspan59"
   y="185"
   x="215.079"
   fill="#00B0F0">&lt;</tspan>T<tspan
   id="tspan61"
   y="185"
   x="238.746"
   fill="#00B0F0">&gt;</tspan><tspan
   id="tspan63"
   y="178"
   x="254.413"
   font-size="16"
   fill="#818181">(†3)</tspan><tspan
   id="tspan65"
   y="389"
   x="147.546">AtomicT</tspan><tspan
   id="tspan67"
   y="382"
   x="233.206"
   font-size="16"
   fill="#818181">(†2)</tspan><tspan
   id="tspan69"
   y="431"
   x="147.546"
   fill="#70AD47">Mutex&lt;</tspan>T<tspan
   id="tspan71"
   y="431"
   x="234.092"
   fill="#70AD47">&gt;</tspan><tspan
   id="tspan73"
   y="472"
   x="147.546"
   fill="#70AD47">RwLock</tspan><tspan
   id="tspan75"
   y="472"
   x="221.159"
   fill="#70AD47">&lt;</tspan>T<tspan
   id="tspan77"
   y="472"
   x="244.826"
   fill="#70AD47">&gt;</tspan><tspan
   id="tspan79"
   y="266"
   x="147.546"
   fill="#00B0F0">Rc</tspan><tspan
   id="tspan81"
   y="266"
   x="170.712"
   fill="#00B0F0">&lt;</tspan><tspan
   id="tspan83"
   y="266"
   x="182.712"
   fill="#BFBFBF">T</tspan><tspan
   id="tspan85"
   y="266"
   x="194.379"
   fill="#00B0F0">&gt;</tspan><tspan
   id="tspan87"
   y="307"
   x="147.546"
   fill="#00B0F0">Rc</tspan><tspan
   id="tspan89"
   y="307"
   x="170.712"
   fill="#00B0F0">&lt;Cell&lt;</tspan><tspan
   id="tspan91"
   y="307"
   x="230.546">T</tspan><tspan
   id="tspan93"
   y="307"
   x="242.212"
   fill="#00B0F0">&gt;&gt;</tspan><tspan
   id="tspan95"
   y="300"
   x="269.879"
   font-size="16"
   fill="#818181">(†3)</tspan><tspan
   id="tspan97"
   y="348"
   x="147.546"
   fill="#00B0F0">Rc</tspan><tspan
   id="tspan99"
   y="348"
   x="170.712"
   fill="#00B0F0">&lt;</tspan><tspan
   id="tspan101"
   y="348"
   x="182.712"
   fill="#00B0F0">RefCell</tspan><tspan
   id="tspan103"
   y="348"
   x="250.246"
   fill="#00B0F0">&lt;</tspan>T<tspan
   id="tspan105"
   y="348"
   x="273.913"
   fill="#00B0F0">&gt;&gt;</tspan><tspan
   id="tspan107"
   y="341"
   x="301.579"
   font-size="16"
   fill="#818181">(†3)</tspan><tspan
   id="tspan109"
   y="513"
   x="147.546"
   fill="#70AD47">Arc&lt;</tspan><tspan
   id="tspan111"
   y="513"
   x="191.526"
   fill="#BFBFBF">T</tspan><tspan
   id="tspan113"
   y="513"
   x="203.192"
   fill="#70AD47">&gt;</tspan><tspan
   id="tspan115"
   y="595"
   x="147.546"
   fill="#70AD47">Arc&lt;Mutex&lt;</tspan>T<tspan
   id="tspan117"
   y="595"
   x="278.072"
   fill="#70AD47">&gt;&gt;</tspan><tspan
   id="tspan119"
   y="636"
   x="147.546"
   fill="#70AD47">Arc&lt;</tspan><tspan
   id="tspan121"
   y="636"
   x="191.526"
   fill="#70AD47">RwLock</tspan><tspan
   id="tspan123"
   y="636"
   x="265.139"
   fill="#70AD47">&lt;</tspan>T<tspan
   id="tspan125"
   y="636"
   x="288.806"
   fill="#70AD47">&gt;&gt;</tspan></text>
    <rect
       id="rect129"
       fill="none"
       stroke-miterlimit="10"
       stroke-linejoin="round"
       stroke="#4472C4"
       height="39"
       width="67"
       y="631.5"
       x="829.5" />
    <text
       id="text131"
       transform="translate(838.371 658)"
       font-size="24"
       font-weight="400"
       font-family="Calibri,Calibri_MSFontService,sans-serif"
       fill="#BFBFBF">Type</text>
    <rect
       id="rect133"
       fill="none"
       stroke-miterlimit="10"
       stroke-linejoin="round"
       stroke="#FFC000"
       height="38"
       width="103"
       y="549.5"
       x="416.5" />
    <text
       id="text135"
       transform="translate(425.708 575)"
       font-size="24"
       font-weight="400"
       font-family="Calibri,Calibri_MSFontService,sans-serif"
       fill="#BFBFBF">Mutable</text>
    <rect
       id="rect137"
       fill="none"
       stroke-miterlimit="10"
       stroke-linejoin="round"
       stroke="#70AD47"
       height="39"
       width="98"
       y="302.5"
       x="19.5001" />
    <text
       id="text139"
       transform="translate(28.5604 329)"
       font-size="24"
       font-weight="400"
       font-family="Calibri,Calibri_MSFontService,sans-serif"
       fill="#BFBFBF">Threads</text>
    <rect
       id="rect141"
       fill="none"
       stroke-miterlimit="10"
       stroke-linejoin="round"
       stroke="#996633"
       height="39"
       width="126"
       y="466.5"
       x="191.5" />
    <text
       id="text143"
       transform="translate(200.227 493)"
       font-size="24"
       font-weight="400"
       font-family="Calibri,Calibri_MSFontService,sans-serif"
       fill="#BFBFBF">Ownership</text>
    <path
       id="path145"
       fill="#BFBFBF"
       d="M317.5 485 439.33 485 439.33 485.802 438.83 485.302 553.493 485.302 553.493 486.302 438.33 486.302 438.33 485.5 438.83 486 317.5 486ZM552.16 481.802 560.16 485.802 552.16 489.802Z" />
    <path
       id="path147"
       transform="matrix(-4.37114e-08 1 1 4.37114e-08 254.5 505.5)"
       fill="#996633"
       d="M0-0.5 63.7788-0.5 63.7788 155.728 62.7788 155.728 62.7788 0 63.2788 0.5 0 0.5ZM67.2788 154.395 63.2788 162.395 59.2788 154.395Z" />
    <path
       id="path149"
       fill="#BFBFBF"
       d="M68 302.591 68 200 184.499 200 184.499 201 68.5 201 69 200.5 69 302.591ZM183.166 196.5 191.166 200.5 183.166 204.5Z" />
    <text
       id="text159"
       transform="translate(467.435 669)"
       font-size="24"
       font-weight="400"
       font-family="Calibri,Calibri_MSFontService,sans-serif"
       fill="#FFC000">&lt;mut&gt;<tspan
   id="tspan151"
   y="-191"
   x="-142.26"
   fill="#BFBFBF">&lt;</tspan><tspan
   id="tspan153"
   y="-191"
   x="-130.26"
   fill="#BFBFBF">un</tspan><tspan
   id="tspan155"
   y="-191"
   x="-104.927"
   fill="#BFBFBF">ique&gt;</tspan><tspan
   id="tspan157"
   y="-77"
   x="-215.041"
   fill="#996633">&lt;shared&gt;</tspan></text>
    <path
       id="path161"
       transform="matrix(-4.37114e-08 1 1 4.37114e-08 68.5001 341.5)"
       fill="#70AD47"
       d="M0-0.5 144.459-0.5 144.459 115.999 143.459 115.999 143.459 0 143.959 0.5 0 0.5ZM147.959 114.666 143.959 122.666 139.959 114.666Z" />
    <path
       id="path163"
       transform="matrix(-4.37114e-08 1 1 4.37114e-08 467.5 587.5)"
       fill="#FFC000"
       d="M0-0.5 63.589-0.5 63.589 85.3182 62.589 85.3182 62.589 0 63.089 0.5 0 0.5ZM67.089 83.9849 63.089 91.9849 59.089 83.9849Z" />
    <path
       id="path165"
       fill="#BFBFBF"
       d="M519.5 568 783.751 568 783.751 568.767 783.251 568.267 1040.33 568.267 1040.33 569.267 782.751 569.267 782.751 568.5 783.251 569 519.5 569ZM1039 564.767 1047 568.767 1039 572.767Z" />
    <rect
       id="rect167"
       fill="none"
       stroke-miterlimit="10"
       stroke-linejoin="round"
       stroke="#4472C4"
       height="39"
       width="66"
       y="384.5"
       x="826.5" />
    <text
       id="text169"
       transform="translate(836.05 411)"
       font-size="24"
       font-weight="400"
       font-family="Calibri,Calibri_MSFontService,sans-serif"
       fill="#BFBFBF">Type</text>
    <path
       id="path171"
       fill="#4472C4"
       d="M859 221.597 859 199 1039.77 199 1039.77 200 859.5 200 860 199.5 860 221.597ZM1038.43 195.5 1046.43 199.5 1038.43 203.5Z" />
    <path
       id="path173"
       fill="#BFBFBF"
       d="M522.5 322 785.317 322 785.317 322.619 784.817 322.119 1040.47 322.119 1040.47 323.119 784.317 323.119 784.317 322.5 784.817 323 522.5 323ZM1039.13 318.619 1047.13 322.619 1039.13 326.619Z" />
    <text
       id="text175"
       transform="translate(527.154 562)"
       font-size="24"
       font-weight="400"
       font-family="Calibri,Calibri_MSFontService,sans-serif"
       fill="#BFBFBF">&lt;immutable&gt;</text>
    <rect
       id="rect177"
       fill="none"
       stroke-miterlimit="10"
       stroke-linejoin="round"
       stroke="#C00000"
       height="39"
       width="64"
       y="631.5"
       x="559.5" />
    <text
       id="text179"
       transform="translate(569.06 658)"
       font-size="24"
       font-weight="400"
       font-family="Calibri,Calibri_MSFontService,sans-serif"
       fill="#BFBFBF">R/W</text>
    <rect
       id="rect181"
       fill="none"
       stroke-miterlimit="10"
       stroke-linejoin="round"
       stroke="#ED7D31"
       height="38"
       width="98"
       y="143.5"
       x="416.5" />
    <text
       id="text185"
       transform="translate(425.432 169)"
       font-size="24"
       font-weight="400"
       font-family="Calibri,Calibri_MSFontService,sans-serif"
       fill="#BFBFBF">Allocate<tspan
   id="tspan183"
   y="342"
   x="-357.609"
   fill="#70AD47">&lt;multiple&gt;</tspan></text>
    <path
       id="path187"
       transform="matrix(1 0 0 -1 514.5 162.532)"
       fill="#BFBFBF"
       d="M0-0.5 42.1271-0.5 42.1271 0.031916 41.6271-0.468084 76.5875-0.468084 76.5875 0.531916 41.1271 0.531916 41.1271 0 41.6271 0.5 0 0.5ZM75.2542-3.96808 83.2542 0.031916 75.2542 4.03192Z" />
    <text
       id="text221"
       transform="translate(1055.94 38)"
       font-size="24"
       font-weight="400"
       font-family="Calibri,Calibri_MSFontService,sans-serif"
       fill="#996633">&amp;<tspan
   id="tspan189"
   y="0"
   x="16.3334"
   fill="#BFBFBF">T </tspan><tspan
   id="tspan191"
   y="0"
   x="33.5"
   fill="#818181">≈ </tspan><tspan
   id="tspan193"
   y="0"
   x="51"
   fill="#818181">*const T</tspan><tspan
   id="tspan195"
   y="251"
   x="0"
   fill="#00B0F0">Box&lt;</tspan><tspan
   id="tspan197"
   y="251"
   x="47.5333"
   fill="#BFBFBF">T</tspan><tspan
   id="tspan199"
   y="251"
   x="59.2"
   fill="#00B0F0">&gt; </tspan><tspan
   id="tspan201"
   y="251"
   x="76.7"
   fill="#818181">or</tspan><tspan
   id="tspan203"
   y="251"
   x="103.2"
   fill="#FFC000">mut</tspan><tspan
   id="tspan205"
   y="244"
   x="143.033"
   font-size="16"
   fill="#818181">(†1)</tspan><tspan
   id="tspan207"
   y="38"
   x="0">&amp;</tspan><tspan
   id="tspan209"
   y="38"
   x="16.3334"
   fill="#FFC000">mut T</tspan><tspan
   id="tspan211"
   y="38"
   x="78.8334"
   fill="#818181">≈ </tspan><tspan
   id="tspan213"
   y="38"
   x="96.3334"
   fill="#818181">*mut T </tspan><tspan
   id="tspan215"
   y="31"
   x="170.833"
   font-size="16"
   fill="#818181">(†1)</tspan><tspan
   id="tspan217"
   y="117"
   x="-532.788"
   fill="#BFBFBF">&lt;stack&gt;</tspan><tspan
   id="tspan219"
   y="232"
   x="-586.415"
   fill="#ED7D31">&lt;heap&gt;</tspan></text>
    <rect
       id="rect223"
       fill="none"
       stroke-miterlimit="10"
       stroke-linejoin="round"
       stroke="#FFC000"
       height="39"
       width="106"
       y="302.5"
       x="416.5" />
    <text
       id="text235"
       transform="translate(425.708 329)"
       font-size="24"
       font-weight="400"
       font-family="Calibri,Calibri_MSFontService,sans-serif"
       fill="#BFBFBF">Mutable<tspan
   id="tspan225"
   y="-138"
   x="-357.886">&lt;single&gt;</tspan><tspan
   id="tspan227"
   y="288"
   x="630.235"
   fill="#70AD47">Arc&lt;</tspan><tspan
   id="tspan229"
   y="288"
   x="674.215"
   fill="#FFC000">AtomicT</tspan><tspan
   id="tspan231"
   y="288"
   x="754.375"
   fill="#70AD47">&gt;</tspan><tspan
   id="tspan233"
   y="281"
   x="771.875"
   font-size="16"
   fill="#818181">(†2)</tspan></text>
    <path
       id="path237"
       fill="#BFBFBF"
       d="M623.5 650 726.915 650 726.915 650.565 726.415 650.065 822.664 650.065 822.664 651.065 725.915 651.065 725.915 650.5 726.415 651 623.5 651ZM821.331 646.565 829.331 650.565 821.331 654.565Z" />
    <path
       id="path239"
       transform="matrix(-4.37114e-08 1 1 4.37114e-08 591.5 670.5)"
       fill="#C00000"
       d="M0-0.5 21.9834-0.5 21.9834 448.476 20.9834 448.476 20.9834 0 21.4834 0.5 0 0.5ZM25.4834 447.143 21.4834 455.143 17.4834 447.143Z" />
    <text
       id="text243"
       transform="translate(911.842 601)"
       font-size="24"
       font-weight="400"
       font-family="Calibri,Calibri_MSFontService,sans-serif"
       fill="#4472C4">&lt;bool|int<tspan
   id="tspan241"
   y="0"
   x="92.4467">&gt;</tspan></text>
    <path
       id="path245"
       fill="#4472C4"
       d="M862 631.36 862 609 1039.81 609 1039.81 610 862.5 610 863 609.5 863 631.36ZM1038.47 605.5 1046.47 609.5 1038.47 613.5Z" />
    <path
       id="path247"
       transform="matrix(1 0 0 -1 896.5 650.721)"
       fill="#BFBFBF"
       d="M0-0.5 75.6858-0.5 75.6858 0.220892 75.1858-0.279108 143.705-0.279108 143.705 0.720892 74.6858 0.720892 74.6858 0 75.1858 0.5 0 0.5ZM142.372-3.77911 150.372 0.220892 142.372 4.22089Z" />
    <text
       id="text255"
       transform="translate(635.676 685)"
       font-size="24"
       font-weight="400"
       font-family="Calibri,Calibri_MSFontService,sans-serif"
       fill="#C00000">&lt;readers/writer&gt;<tspan
   id="tspan249"
   y="-44"
   x="276.166"
   fill="#BFBFBF">&lt;any&gt;</tspan><tspan
   id="tspan251"
   y="-369"
   x="-108.522"
   fill="#BFBFBF">&lt;immutable&gt;</tspan><tspan
   id="tspan253"
   y="-261"
   x="-168.241"
   fill="#FFC000">&lt;mut&gt;</tspan></text>
    <path
       id="path257"
       transform="matrix(-4.37114e-08 1 1 4.37114e-08 469.5 341.5)"
       fill="#FFC000"
       d="M0-0.5 62.9896-0.5 62.9896 350.876 61.9896 350.876 61.9896 0 62.4896 0.5 0 0.5ZM66.4896 349.542 62.4896 357.542 58.4896 349.542Z" />
    <path
       id="path259"
       fill="#4472C4"
       d="M859 384.844 859 363 1039.77 363 1039.77 364 859.5 364 860 363.5 860 384.844ZM1038.43 359.5 1046.43 363.5 1038.43 367.5Z" />
    <path
       id="path261"
       fill="#BFBFBF"
       d="M892.5 404 969.988 404 969.988 404.795 969.488 404.295 1039.81 404.295 1039.81 405.295 968.988 405.295 968.988 404.5 969.488 405 892.5 405ZM1038.48 400.795 1046.48 404.795 1038.48 408.795Z" />
    <rect
       id="rect263"
       fill="none"
       stroke-miterlimit="10"
       stroke-linejoin="round"
       stroke="#4472C4"
       height="39"
       width="66"
       y="221.5"
       x="826.5" />
    <text
       id="text265"
       transform="translate(836.05 248)"
       font-size="24"
       font-weight="400"
       font-family="Calibri,Calibri_MSFontService,sans-serif"
       fill="#BFBFBF">Type</text>
    <path
       id="path267"
       transform="matrix(1 0 0 -1 892.5 240.705)"
       fill="#BFBFBF"
       d="M0-0.5 77.4876-0.5 77.4876 0.204724 76.9876-0.295276 147.309-0.295276 147.309 0.704724 76.4876 0.704724 76.4876 0 76.9876 0.5 0 0.5ZM145.975-3.79528 153.975 0.204724 145.975 4.20472Z" />
    <rect
       id="rect269"
       fill="none"
       stroke-miterlimit="10"
       stroke-linejoin="round"
       stroke="#4472C4"
       height="39"
       width="67"
       y="466.5"
       x="829.5" />
    <text
       id="text271"
       transform="translate(838.371 493)"
       font-size="24"
       font-weight="400"
       font-family="Calibri,Calibri_MSFontService,sans-serif"
       fill="#BFBFBF">Type</text>
    <path
       id="path273"
       fill="#4472C4"
       d="M862 466.817 862 445 1039.81 445 1039.81 446 862.5 446 863 445.5 863 466.817ZM1038.47 441.5 1046.47 445.5 1038.47 449.5Z" />
    <path
       id="path275"
       fill="#BFBFBF"
       d="M896.5 486 972.186 486 972.186 486.822 971.686 486.322 1040.21 486.322 1040.21 487.322 971.186 487.322 971.186 486.5 971.686 487 896.5 487ZM1038.87 482.822 1046.87 486.822 1038.87 490.822Z" />
    <text
       id="text279"
       transform="translate(911.486 355)"
       font-size="24"
       font-weight="400"
       font-family="Calibri,Calibri_MSFontService,sans-serif"
       fill="#4472C4">&lt;Copy|move&gt;<tspan
   id="tspan277"
   y="41"
   x="0"
   fill="#BFBFBF">&lt;&amp; reference&gt;</tspan></text>
    <rect
       id="rect281"
       fill="none"
       stroke-miterlimit="10"
       stroke-linejoin="round"
       stroke="#C00000"
       height="39"
       width="64"
       y="466.5"
       x="559.5" />
    <text
       id="text283"
       transform="translate(569.06 493)"
       font-size="24"
       font-weight="400"
       font-family="Calibri,Calibri_MSFontService,sans-serif"
       fill="#BFBFBF">R/W</text>
    <path
       id="path285"
       fill="#BFBFBF"
       d="M623.5 486 726.915 486 726.915 486.756 726.415 486.256 822.664 486.256 822.664 487.256 725.915 487.256 725.915 486.5 726.415 487 623.5 487ZM821.331 482.756 829.331 486.756 821.331 490.756Z" />
    <path
       id="path287"
       transform="matrix(-4.37114e-08 1 1 4.37114e-08 591.5 505.5)"
       fill="#C00000"
       d="M0-0.5 22.7176-0.5 22.7176 448.476 21.7176 448.476 21.7176 0 22.2176 0.5 0 0.5ZM26.2176 447.143 22.2176 455.143 18.2176 447.143Z" />
    <text
       id="text299"
       transform="translate(911.842 440)"
       font-size="24"
       font-weight="400"
       font-family="Calibri,Calibri_MSFontService,sans-serif"
       fill="#4472C4">&lt;bool|int<tspan
   id="tspan289"
   y="0"
   x="92.4467">&gt;</tspan><tspan
   id="tspan291"
   y="39"
   x="0"
   fill="#BFBFBF">&lt;</tspan><tspan
   id="tspan293"
   y="39"
   x="12"
   fill="#BFBFBF">any&gt;</tspan><tspan
   id="tspan295"
   y="-249"
   x="-0.356262">&lt;</tspan>Copy|move&gt;<tspan
   id="tspan297"
   y="-210"
   x="-0.356262"
   fill="#BFBFBF">&lt;&amp; reference&gt;</tspan></text>
    <path
       id="path301"
       transform="matrix(-4.37114e-08 1 1 4.37114e-08 465.5 181.5)"
       fill="#ED7D31"
       d="M0-0.5 100.533-0.5 100.533 574.524 99.5332 574.524 99.5332 0 100.033 0.5 0 0.5ZM104.033 573.191 100.033 581.191 96.0332 573.191Z" />
    <text
       id="text307"
       transform="translate(635.676 478)"
       font-size="24"
       font-weight="400"
       font-family="Calibri,Calibri_MSFontService,sans-serif"
       fill="#BFBFBF">&lt;reader/writer&gt;<tspan
   id="tspan303"
   y="43"
   x="0"
   fill="#C00000">&lt;readers/writer&gt;</tspan><tspan
   id="tspan305"
   y="-367"
   x="385.147"
   fill="#996633">&lt;&amp;ref|*deref&gt;</tspan></text>
    <rect
       id="rect309"
       fill="none"
       stroke-miterlimit="10"
       stroke-linejoin="round"
       stroke="#FFC000"
       height="38"
       width="200"
       y="143.5"
       x="598.5" />
    <text
       id="text315"
       transform="translate(607.327 169)"
       font-size="24"
       font-weight="400"
       font-family="Calibri,Calibri_MSFontService,sans-serif"
       fill="#BFBFBF">Interior<tspan
   id="tspan311"
   y="0"
   x="73.02">-</tspan><tspan
   id="tspan313"
   y="0"
   x="80.3533">mutability</tspan></text>
    <path
       id="path317"
       fill="#BFBFBF"
       d="M798.5 162 923.042 162 923.042 162.728 922.542 162.228 1039.92 162.228 1039.92 163.228 922.042 163.228 922.042 162.5 922.542 163 798.5 163ZM1038.58 158.728 1046.58 162.728 1038.58 166.728Z" />
    <path
       id="path319"
       transform="matrix(-4.37114e-08 1 1 4.37114e-08 698.5 181.5)"
       fill="#FFC000"
       d="M0-0.5 59.4898-0.5 59.4898 121.791 58.4898 121.791 58.4898 0 58.9898 0.5 0 0.5ZM62.9898 120.457 58.9898 128.457 54.9898 120.457Z" />
    <text
       id="text333"
       transform="translate(805.646 157)"
       font-size="24"
       font-weight="400"
       font-family="Calibri,Calibri_MSFontService,sans-serif"
       fill="#BFBFBF">&lt;not need&gt;<tspan
   id="tspan321"
   y="103"
   x="-106.329"
   fill="#FFC000">&lt;need&gt;</tspan><tspan
   id="tspan323"
   y="-138"
   x="-145.544"
   font-size="13"
   fill="#818181">(†1): `</tspan><tspan
   id="tspan325"
   y="-138"
   x="-113.711"
   font-size="13"
   fill="#FFC000">mut</tspan><tspan
   id="tspan327"
   y="-138"
   x="-88.5443"
   font-size="13"
   fill="#818181">T` is </tspan><tspan
   id="tspan329"
   y="-138"
   x="-64.0443"
   font-size="13"
   fill="#818181">not a Type</tspan><tspan
   id="tspan331"
   y="-138"
   x="-7.04425"
   font-size="13"
   fill="#818181">, this </tspan></text>
    <path
       id="path335"
       fill-rule="evenodd"
       fill="#818181"
       d="M742.102 20.1352 770.602 20.1352 799.102 20.1352 799.102 21.1352 770.602 21.1352 742.102 21.1352Z" />
    <text
       id="text347"
       transform="translate(660.102 35)"
       font-size="13"
       font-weight="400"
       font-family="Calibri,Calibri_MSFontService,sans-serif"
       fill="#818181">suggestion means to “be use the `mut` <tspan
   id="tspan337"
   y="16"
   x="0">keyword like a `let </tspan><tspan
   id="tspan339"
   y="16"
   x="101.833"
   fill="#FFC000">mut</tspan><tspan
   id="tspan341"
   y="16"
   x="127">x: T` for your </tspan><tspan
   id="tspan343"
   y="32"
   x="0">binding if it needs mutability</tspan><tspan
   id="tspan345"
   y="32"
   x="154.333">”.</tspan></text>
    <rect
       id="rect349"
       fill="none"
       stroke-miterlimit="10"
       stroke-linejoin="round"
       stroke="#996633"
       height="39"
       width="126"
       y="181.5"
       x="191.5" />
    <text
       id="text351"
       transform="translate(200.227 208)"
       font-size="24"
       font-weight="400"
       font-family="Calibri,Calibri_MSFontService,sans-serif"
       fill="#BFBFBF">Ownership</text>
    <path
       id="path353"
       transform="matrix(-4.37114e-08 1 1 4.37114e-08 254.5 220.5)"
       fill="#996633"
       d="M0-0.5 102.591-0.5 102.591 155.728 101.591 155.728 101.591 0 102.091 0.5 0 0.5ZM106.091 154.395 102.091 162.395 98.0909 154.395Z" />
    <path
       id="path355"
       fill="#BFBFBF"
       d="M254 181.468 254 162 409.952 162 409.952 163 254.5 163 255 162.5 255 181.468ZM408.618 158.5 416.618 162.5 408.618 166.5Z" />
    <text
       id="text369"
       transform="translate(252.395 344)"
       font-size="24"
       font-weight="400"
       font-family="Calibri,Calibri_MSFontService,sans-serif"
       fill="#996633">&lt;shared&gt;<tspan
   id="tspan357"
   y="-189"
   x="0"
   fill="#BFBFBF">&lt;</tspan><tspan
   id="tspan359"
   y="-189"
   x="12"
   fill="#BFBFBF">un</tspan><tspan
   id="tspan361"
   y="-189"
   x="37.3333"
   fill="#BFBFBF">ique&gt;</tspan><tspan
   id="tspan363"
   y="-298"
   x="-226.344"
   font-size="32"
   fill="#BFBFBF">Rust Memory Container Cheat</tspan><tspan
   id="tspan365"
   y="-298"
   x="166.456"
   font-size="32"
   fill="#BFBFBF">-</tspan><tspan
   id="tspan367"
   y="-298"
   x="176.29"
   font-size="32"
   fill="#BFBFBF">sheet</tspan></text>
    <path
       id="path371"
       transform="matrix(-4.37114e-08 -1 -1 4.37114e-08 1162.19 146.454)"
       fill="#996633"
       d="M6.66667-0.5 14.6667-0.5 14.6667 0.5 6.66667 0.5ZM17.6667-0.5 25.6667-0.5 25.6667 0.5 17.6667 0.5ZM28.6667-0.5 29.2831-0.5 29.2831 7.88359 28.2831 7.88359 28.2831 0 28.7831 0.5 28.6667 0.5ZM29.2831 10.8836 29.2831 18.8836 28.2831 18.8836 28.2831 10.8836ZM29.2831 21.8836 29.2831 29.8836 28.2831 29.8836 28.2831 21.8836ZM29.2831 32.8836 29.2831 40.8836 28.2831 40.8836 28.2831 32.8836ZM29.2831 43.8836 29.2831 51.8836 28.2831 51.8836 28.2831 43.8836ZM29.2831 54.8836 29.2831 62.8836 28.2831 62.8836 28.2831 54.8836ZM29.2831 65.8836 29.2831 73.8836 28.2831 73.8836 28.2831 65.8836ZM29.2831 76.8836 29.2831 84.8836 28.2831 84.8836 28.2831 76.8836ZM29.2831 87.8836 29.2831 95.8836 28.2831 95.8836 28.2831 87.8836ZM29.2831 98.8836 29.2831 106.884 28.2831 106.884 28.2831 98.8836ZM29.2831 109.884 29.2831 117.884 28.2831 117.884 28.2831 109.884ZM29.2831 120.884 29.2831 128.884 28.2831 128.884 28.2831 120.884ZM29.2831 131.884 29.2831 139.884 28.2831 139.884 28.2831 131.884ZM29.2831 142.884 29.2831 150.884 28.2831 150.884 28.2831 142.884ZM29.2831 153.884 29.2831 161.884 28.2831 161.884 28.2831 153.884ZM29.2831 164.884 29.2831 172.884 28.2831 172.884 28.2831 164.884ZM29.2831 175.884 29.2831 183.884 28.2831 183.884 28.2831 175.884ZM29.2831 186.884 29.2831 194.884 28.2831 194.884 28.2831 186.884ZM29.2831 197.884 29.2831 205.884 28.2831 205.884 28.2831 197.884ZM29.2831 208.884 29.2831 216.884 28.2831 216.884 28.2831 208.884ZM29.2831 219.884 29.2831 227.884 28.2831 227.884 28.2831 219.884ZM29.2831 230.884 29.2831 238.884 28.2831 238.884 28.2831 230.884ZM29.2831 241.884 29.2831 249.884 28.2831 249.884 28.2831 241.884ZM29.2831 252.884 29.2831 258.882 28.7831 258.382 30.785 258.382 30.785 259.382 28.2831 259.382 28.2831 252.884ZM33.785 258.382 41.785 258.382 41.785 259.382 33.785 259.382ZM44.785 258.382 52.785 258.382 52.785 259.382 44.785 259.382ZM55.785 258.382 63.785 258.382 63.785 259.382 55.785 259.382ZM66.785 258.382 74.785 258.382 74.785 259.382 66.785 259.382ZM76.454 258.051 76.454 250.051 77.454 250.051 77.454 258.051ZM76.454 247.051 76.454 239.051 77.454 239.051 77.454 247.051ZM76.454 236.051 76.454 228.051 77.454 228.051 77.454 236.051ZM76.454 225.051 76.454 217.051 77.454 217.051 77.454 225.051ZM76.454 214.051 76.454 206.051 77.454 206.051 77.454 214.051ZM76.454 203.051 76.454 195.051 77.454 195.051 77.454 203.051ZM76.454 192.051 76.454 184.051 77.454 184.051 77.454 192.051ZM76.454 181.051 76.454 173.051 77.454 173.051 77.454 181.051ZM76.454 170.051 76.454 162.051 77.454 162.051 77.454 170.051ZM76.454 159.051 76.454 151.051 77.454 151.051 77.454 159.051ZM76.454 148.051 76.454 140.051 77.454 140.051 77.454 148.051ZM76.454 137.051 76.454 129.051 77.454 129.051 77.454 137.051ZM76.454 126.051 76.454 122.361 77.454 122.361 77.454 126.051ZM8 4 0 0 8-4ZM72.954 123.694 76.954 115.694 80.954 123.694Z" />
    <path
       id="path373"
       transform="matrix(-4.37114e-08 -1 -1 4.37114e-08 1162.19 146.651)"
       fill="#996633"
       d="M6.66667-0.5 14.6667-0.5 14.6667 0.5 6.66667 0.5ZM17.6667-0.5 25.6667-0.5 25.6667 0.5 17.6667 0.5ZM28.6667-0.5 29.3671-0.5 29.3671 7.79957 28.3671 7.79957 28.3671 0 28.8671 0.5 28.6667 0.5ZM29.3671 10.7996 29.3671 18.7996 28.3671 18.7996 28.3671 10.7996ZM29.3671 21.7996 29.3671 29.7996 28.3671 29.7996 28.3671 21.7996ZM29.3671 32.7996 29.3671 40.7996 28.3671 40.7996 28.3671 32.7996ZM29.3671 43.7996 29.3671 51.7996 28.3671 51.7996 28.3671 43.7996ZM29.3671 54.7996 29.3671 62.7996 28.3671 62.7996 28.3671 54.7996ZM29.3671 65.7996 29.3671 73.7996 28.3671 73.7996 28.3671 65.7996ZM29.3671 76.7996 29.3671 84.7996 28.3671 84.7996 28.3671 76.7996ZM29.3671 87.7996 29.3671 95.7996 28.3671 95.7996 28.3671 87.7996ZM29.3671 98.7996 29.3671 106.8 28.3671 106.8 28.3671 98.7996ZM29.3671 109.8 29.3671 117.8 28.3671 117.8 28.3671 109.8ZM29.3671 120.8 29.3671 128.8 28.3671 128.8 28.3671 120.8ZM29.3671 131.8 29.3671 139.8 28.3671 139.8 28.3671 131.8ZM29.3671 142.8 29.3671 150.8 28.3671 150.8 28.3671 142.8ZM29.3671 153.8 29.3671 161.8 28.3671 161.8 28.3671 153.8ZM29.3671 164.8 29.3671 172.8 28.3671 172.8 28.3671 164.8ZM29.3671 175.8 29.3671 183.8 28.3671 183.8 28.3671 175.8ZM29.3671 186.8 29.3671 194.8 28.3671 194.8 28.3671 186.8ZM29.3671 197.8 29.3671 205.8 28.3671 205.8 28.3671 197.8ZM29.3671 208.8 29.3671 216.8 28.3671 216.8 28.3671 208.8ZM29.3671 219.8 29.3671 227.8 28.3671 227.8 28.3671 219.8ZM29.3671 230.8 29.3671 238.8 28.3671 238.8 28.3671 230.8ZM29.3671 241.8 29.3671 249.8 28.3671 249.8 28.3671 241.8ZM29.3671 252.8 29.3671 258.882 28.8671 258.382 30.785 258.382 30.785 259.382 28.3671 259.382 28.3671 252.8ZM33.785 258.382 41.785 258.382 41.785 259.382 33.785 259.382ZM44.785 258.382 52.785 258.382 52.785 259.382 44.785 259.382ZM55.785 258.382 63.785 258.382 63.785 259.382 55.785 259.382ZM66.785 258.382 74.785 258.382 74.785 259.382 66.785 259.382ZM77.785 258.382 85.785 258.382 85.785 259.382 77.785 259.382ZM88.785 258.382 96.785 258.382 96.785 259.382 88.785 259.382ZM99.785 258.382 107.785 258.382 107.785 259.382 99.785 259.382ZM110.785 258.382 115.151 258.382 114.651 258.882 114.651 255.247 115.651 255.247 115.651 259.382 110.785 259.382ZM114.651 252.247 114.651 244.247 115.651 244.247 115.651 252.247ZM114.651 241.247 114.651 233.247 115.651 233.247 115.651 241.247ZM114.651 230.247 114.651 222.247 115.651 222.247 115.651 230.247ZM114.651 219.247 114.651 211.247 115.651 211.247 115.651 219.247ZM114.651 208.247 114.651 200.247 115.651 200.247 115.651 208.247ZM114.651 197.247 114.651 189.247 115.651 189.247 115.651 197.247ZM114.651 186.247 114.651 178.247 115.651 178.247 115.651 186.247ZM114.651 175.247 114.651 167.247 115.651 167.247 115.651 175.247ZM114.651 164.247 114.651 156.247 115.651 156.247 115.651 164.247ZM114.651 153.247 114.651 145.247 115.651 145.247 115.651 153.247ZM114.651 142.247 114.651 134.247 115.651 134.247 115.651 142.247ZM114.651 131.247 114.651 123.247 115.651 123.247 115.651 131.247ZM8 4 0 0 8-4ZM111.151 123.694 115.151 115.694 119.151 123.694Z" />
    <rect
       id="rect375"
       fill="none"
       stroke-dasharray="8 3"
       stroke-miterlimit="10"
       stroke-linejoin="round"
       stroke="#996633"
       height="564"
       width="220"
       y="146.5"
       x="1052.5" />
    <rect
       id="rect377"
       fill="none"
       stroke-dasharray="8 3"
       stroke-miterlimit="10"
       stroke-linejoin="round"
       stroke="#996633"
       height="72"
       width="220"
       y="13.5001"
       x="1048.5" />
    <text
       id="text403"
       transform="translate(406.804 73)"
       font-size="13"
       font-weight="400"
       font-family="Calibri,Calibri_MSFontService,sans-serif"
       fill="#818181">(†3): Choose `RefCell` if you want plain <tspan
   id="tspan379"
   y="16"
   x="0">`&amp;` references to the contained data. On </tspan><tspan
   id="tspan381"
   y="32"
   x="0">the other hand, `Cell` will need `Copy` or </tspan><tspan
   id="tspan383"
   y="48"
   x="0">`.replace` and move operations.</tspan><tspan
   id="tspan385"
   y="18"
   x="253.298">(†</tspan><tspan
   id="tspan387"
   y="18"
   x="263.965">2): `</tspan><tspan
   id="tspan389"
   y="18"
   x="285.132">bool|int</tspan><tspan
   id="tspan391"
   y="18"
   x="329.798">` means to “Boolean or </tspan><tspan
   id="tspan393"
   y="34"
   x="253.298">Integral” that is Bool, I8, I16, I32, I64, </tspan><tspan
   id="tspan395"
   y="50"
   x="253.298">Isize</tspan>, U8, U16, U32, U64, <tspan
   id="tspan397"
   y="50"
   x="390.298">Usize</tspan><tspan
   id="tspan399"
   y="50"
   x="421.965">and </tspan><tspan
   id="tspan401"
   y="50"
   x="445.298">Ptr</tspan>.</text>
  </g>
</svg>
